<svg xmlns="http://www.w3.org/2000/svg" width="1080" height="368" viewBox="0 0 1080 368" role="img" aria-label="Coding Activity">
  <style>
    .card { fill: #0d1117; stroke: #30363d; stroke-width: 1.2; }
    .title { fill: #f0f6fc; font: 800 30px -apple-system, BlinkMacSystemFont, Segoe UI, sans-serif; }
    .subtitle { fill: #8b949e; font: 500 15px -apple-system, BlinkMacSystemFont, Segoe UI, sans-serif; }
    .meta { fill: #8b949e; font: 500 14px -apple-system, BlinkMacSystemFont, Segoe UI, sans-serif; }
    .label { fill: #f0f6fc; font: 700 16px -apple-system, BlinkMacSystemFont, Segoe UI, sans-serif; }
    .duration { fill: #c9d1d9; font: 700 15px -apple-system, BlinkMacSystemFont, Segoe UI, sans-serif; text-anchor: end; }
    .share { fill: #8b949e; font: 600 14px -apple-system, BlinkMacSystemFont, Segoe UI, sans-serif; text-anchor: end; }
    .track { fill: #21262d; }
    .fill { fill: #58a6ff; }
    .icon-bg { stroke: rgba(255, 255, 255, 0.18); stroke-width: 0.6; }
    .icon-text { fill: #ffffff; font: 800 11px -apple-system, BlinkMacSystemFont, Segoe UI, sans-serif; text-anchor: middle; dominant-baseline: central; }
    .icon-mark { fill: #ffffff; font: 900 15px -apple-system, BlinkMacSystemFont, Segoe UI, sans-serif; text-anchor: middle; dominant-baseline: central; }
  </style>
  <rect x="0.5" y="0.5" width="1079" height="367" rx="18" class="card" />
  <text x="40" y="44" class="title">Coding Activity</text>
  <text x="40" y="72" class="subtitle">Total tracked: 46s</text>
  <g transform="translate(0 104)">
    <g transform="translate(40 10)">
      <rect width="24" height="24" rx="6" fill="#3776ab" class="icon-bg" />
      <text x="12" y="12" class="icon-text">Py</text>
    </g>
    <text x="78" y="28" class="label">Python</text>
    <rect x="332" y="16" width="460" height="14" rx="7" class="track" />
    <rect x="332" y="16" width="370" height="14" rx="7" class="fill" />
    <text x="826" y="28" class="duration">37s</text>
    <text x="990" y="28" class="share">80.4%</text>
  </g>
  <g transform="translate(0 152)">
    <g transform="translate(40 10)">
      <rect width="24" height="24" rx="6" fill="#6e7681" class="icon-bg" />
      <text x="12" y="12" class="icon-text">PIP</text>
    </g>
    <text x="78" y="28" class="label">pip-requirements</text>
    <rect x="332" y="16" width="460" height="14" rx="7" class="track" />
    <rect x="332" y="16" width="40" height="14" rx="7" class="fill" />
    <text x="826" y="28" class="duration">4s</text>
    <text x="990" y="28" class="share">8.7%</text>
  </g>
  <g transform="translate(0 200)">
    <g transform="translate(40 10)">
      <rect width="24" height="24" rx="6" fill="#cbcb41" class="icon-bg" />
      <text x="12" y="12" class="icon-text">{}</text>
    </g>
    <text x="78" y="28" class="label">JSON</text>
    <rect x="332" y="16" width="460" height="14" rx="7" class="track" />
    <rect x="332" y="16" width="30" height="14" rx="7" class="fill" />
    <text x="826" y="28" class="duration">3s</text>
    <text x="990" y="28" class="share">6.5%</text>
  </g>
  <g transform="translate(0 248)">
    <g transform="translate(40 10)">
      <rect width="24" height="24" rx="6" fill="#6e7681" class="icon-bg" />
      <text x="12" y="12" class="icon-text">IGN</text>
    </g>
    <text x="78" y="28" class="label">ignore</text>
    <rect x="332" y="16" width="460" height="14" rx="7" class="track" />
    <rect x="332" y="16" width="20" height="14" rx="7" class="fill" />
    <text x="826" y="28" class="duration">2s</text>
    <text x="990" y="28" class="share">4.3%</text>
  </g>
  <text x="40" y="340" class="meta">Last update: 4/25/2026, 3:06:09 AM</text>
</svg>
